<?xml version="1.0" encoding="UTF-8"?>
<svg id="Camada_2" data-name="Camada 2" xmlns="http://www.w3.org/2000/svg" viewBox="0 0 763.91 525.04">
  <g id="Camada_1-2" data-name="Camada 1">
    <g>
      <path d="M301.36,212.71c15.71,64.23-9.13,124.1-54.19,159.29h58.92c0,84.52-68.52,153.04-153.04,153.04v-68.09c44.62,0,81.21-34.41,84.68-78.14-24.37,16.22-53.66,25.65-85.15,25.55C68.63,404.11.07,335.4,0,251.46-.08,154.74,89.55,78.94,190.27,102.68c48.85,11.51,99.16,61.28,111.09,110.03ZM153.47,166.57c-46.92,0-84.95,38.03-84.95,84.95s38.04,84.95,84.95,84.95,84.95-38.03,84.95-84.95-38.04-84.95-84.95-84.95ZM342.09,99.42c0,18.8-15.24,34.04-34.04,34.04s-34.04-15.24-34.04-34.04,15.24-34.04,34.04-34.04,34.04,15.24,34.04,34.04Z"/>
      <path d="M588.53,168.5l-164.22,161.48c10.05,4.18,21.06,6.49,32.62,6.49,30.64,0,57.49-16.22,72.43-40.54l48.88,48.88c-27.98,36.33-71.91,59.75-121.31,59.75-84.52,0-153.04-68.52-153.04-153.04s68.52-153.04,153.04-153.04c64.72,0,94.63,29.13,131.6,70.02ZM487.59,172.27c-9.51-3.68-19.84-5.7-30.65-5.7-46.92,0-84.95,38.04-84.95,84.95,0,10.3,1.84,20.18,5.2,29.32l110.41-108.57Z"/>
      <path d="M743.91,167h-65v84.95c0,46.92,38.06,84.95,85,84.95v67.64c-84.5,0-153-68.5-153-153v-84.54h-38v-68h38V0h68v99h65v68Z"/>
    </g>
  </g>
</svg>