<?xml version="1.0" encoding="UTF-8"?>
<svg id="Camada_2" data-name="Camada 2" xmlns="http://www.w3.org/2000/svg" viewBox="0 0 474.31 197.78">
  <g id="graphics">
    <g>
      <path d="M105.6,100.1v49.5h-19.36v-8.8c-10.12,8.14-21.78,11.88-33,11.88-27.28,0-53.24-21.34-53.24-52.58,0-29.26,23.54-52.8,52.8-52.8s52.58,23.54,52.8,52.8ZM52.8,66.66c-18.48,0-33.44,14.96-33.44,33.44,0,20.02,16.5,33.22,33.66,33.22,18.04,0,33.22-14.96,33.22-33s-13.2-33.66-33.44-33.66Z"/>
      <path d="M156.86,152.68c-29.26,0-52.8-23.54-52.8-52.58s24.2-52.8,52.58-52.8c3.08,0,6.16.22,9.24.66,10.78-10.12,5.28-5.06,16.06-15.4,8.8,9.24,4.4,4.62,13.42,14.08l-9.68,9.24c16.5,10.78,23.98,27.28,23.98,43.56,0,26.84-20.46,53.24-52.8,53.24ZM190.3,100.1c0-18.48-14.96-33.44-33.44-33.44s-33.44,14.96-33.44,33.44,14.96,33.22,33.44,33.22,33.44-14.96,33.44-33.22ZM156.86,197.78h-15.4v-19.36h15.4c27.5,0,33.44-23.32,33.44-29.04h19.36c0,20.9-18.04,48.4-52.8,48.4Z"/>
      <path d="M230.77,50.6v99h-19.36V50.6h19.36Z"/>
      <path d="M261.57,0v149.6h-19.36V0h19.36Z"/>
      <path d="M292.37,50.6v99h-19.36V50.6h19.36Z"/>
      <path d="M378.61,149.6h-84.04v-19.58c37.84-39.38,18.92-19.58,56.98-59.18h-56.98v-19.36h84.04v19.14c-37.18,39.82-18.48,19.8-55.66,59.62h55.66v19.36Z"/>
      <path d="M474.31,100.1v49.5h-19.36v-8.8c-10.12,8.14-21.78,11.88-33,11.88-27.28,0-53.24-21.34-53.24-52.58,0-29.26,23.54-52.8,52.8-52.8s52.58,23.54,52.8,52.8ZM421.51,66.66c-18.48,0-33.44,14.96-33.44,33.44,0,20.02,16.5,33.22,33.66,33.22,18.04,0,33.22-14.96,33.22-33s-13.2-33.66-33.44-33.66Z"/>
    </g>
  </g>
</svg>